<svg xmlns="http://www.w3.org/2000/svg" xmlns:xlink="http://www.w3.org/1999/xlink" version="1.1" x="0px" y="0px" viewBox="0 0 100 125" enable-background="new 0 0 100 100" xml:space="preserve"><g><path d="M93.548,64.226l-21.319,0c-0.523-0.001-1.008-0.192-1.409-0.54c-0.399-0.348-0.7-0.849-0.81-1.452l-1.374-7.927   l-0.003-0.015c-0.247-1.373-0.943-2.51-1.877-3.255c-0.933-0.749-2.071-1.116-3.198-1.116c-1.128,0-2.266,0.367-3.198,1.116   c-0.934,0.745-1.63,1.882-1.877,3.255l-1.961,10.67L54.593,75.41c-0.143,0.747-0.456,1.2-0.842,1.516   c-0.387,0.311-0.877,0.475-1.378,0.475c-0.501,0-0.991-0.163-1.377-0.474c-0.385-0.315-0.698-0.767-0.842-1.513l-1.947-10.455   l0.001,0.003l-3.191-17.324c-0.248-1.372-0.944-2.509-1.878-3.254c-0.932-0.749-2.07-1.115-3.197-1.115   c-1.127,0-2.265,0.366-3.197,1.115c-0.934,0.745-1.63,1.882-1.878,3.254l-0.001,0.008l-2.604,14.589   c-0.111,0.602-0.412,1.103-0.811,1.451c-0.402,0.348-0.886,0.539-1.409,0.54H6.452C5.65,64.226,5,64.875,5,65.677   c0,0.802,0.65,1.452,1.452,1.452v0h23.589c1.255,0.001,2.424-0.474,3.317-1.255c0.895-0.78,1.529-1.87,1.758-3.114l0.001-0.008   l2.604-14.589c0.143-0.747,0.456-1.201,0.841-1.516c0.387-0.311,0.877-0.475,1.379-0.475c0.501,0,0.992,0.164,1.379,0.475   c0.385,0.316,0.699,0.769,0.841,1.517l3.191,17.324l0.001,0.003L47.3,75.946c0.25,1.369,0.946,2.503,1.88,3.246   c0.932,0.747,2.068,1.112,3.193,1.112c1.127,0,2.264-0.367,3.197-1.115c0.934-0.744,1.63-1.88,1.878-3.252l1.928-10.449   l1.961-10.671c0.143-0.748,0.456-1.202,0.841-1.518c0.387-0.312,0.877-0.475,1.379-0.475c0.501,0,0.992,0.164,1.379,0.475   c0.385,0.315,0.698,0.769,0.841,1.516l1.374,7.927l0.003,0.015c0.229,1.245,0.863,2.335,1.758,3.115   c0.893,0.781,2.062,1.257,3.318,1.256h21.319c0.802,0,1.451-0.65,1.451-1.451C95,64.876,94.35,64.226,93.548,64.226z"/><path d="M78.197,79.079c-0.644-0.478-1.553-0.343-2.031,0.301c-5.599,7.536-14.906,12.714-26.183,12.717   C38.707,92.093,29.462,86.92,23.859,79.38c-0.478-0.644-1.387-0.778-2.031-0.3c-0.644,0.478-0.778,1.387-0.3,2.031l0,0   C27.654,89.372,37.802,95.004,49.984,95c12.181,0.003,22.384-5.625,28.514-13.89C78.976,80.466,78.841,79.557,78.197,79.079z"/><path d="M18.439,52.546c0.744,0.298,1.589-0.065,1.887-0.809l0,0c0.328-0.82,0.712-1.643,1.153-2.47l19.16-35.724   c1.021-1.898,2.438-3.294,4.065-4.232c1.626-0.936,3.467-1.408,5.311-1.408c1.844,0,3.685,0.471,5.311,1.408   c1.627,0.938,3.044,2.334,4.065,4.232L78.55,49.27l-0.002-0.003c0.441,0.827,0.825,1.65,1.152,2.47   c0.298,0.744,1.142,1.107,1.887,0.809c0.744-0.298,1.107-1.142,0.809-1.887c-0.369-0.923-0.798-1.843-1.286-2.758l-0.002-0.003   L61.947,12.17c-1.273-2.372-3.093-4.179-5.175-5.376C54.69,5.596,52.35,5,50.013,5c-2.337,0-4.677,0.596-6.759,1.795   c-2.082,1.197-3.902,3.003-5.174,5.375L18.918,47.898l-0.002,0.003c-0.488,0.916-0.917,1.835-1.286,2.758   C17.332,51.404,17.694,52.248,18.439,52.546z"/></g></svg>